<svg width="25" height="24" viewBox="0 0 25 24" fill="none" xmlns="http://www.w3.org/2000/svg">
<g id="Frame">
<path id="Vector" d="M22.604 5.65599C21.8406 5.99368 21.031 6.21546 20.202 6.31399C21.0758 5.79142 21.7297 4.969 22.042 3.99999C21.222 4.48799 20.323 4.82999 19.386 5.01499C18.7566 4.34157 17.9224 3.89495 17.013 3.74457C16.1036 3.59419 15.1699 3.74848 14.3573 4.18344C13.5446 4.6184 12.8984 5.30967 12.5191 6.14978C12.1398 6.98989 12.0488 7.93177 12.26 8.82899C10.5971 8.74564 8.97034 8.31351 7.4853 7.56065C6.00025 6.80779 4.69014 5.75104 3.64001 4.45899C3.2683 5.09744 3.07296 5.82321 3.07401 6.56199C3.07401 8.01199 3.81201 9.29299 4.93401 10.043C4.27002 10.0221 3.62064 9.84277 3.04001 9.51999V9.57199C3.04021 10.5377 3.37438 11.4736 3.98586 12.221C4.59733 12.9685 5.44849 13.4815 6.39501 13.673C5.77862 13.84 5.13232 13.8646 4.50501 13.745C4.77188 14.5762 5.29202 15.3032 5.9926 15.8241C6.69319 16.345 7.53914 16.6338 8.41201 16.65C7.54449 17.3313 6.55119 17.835 5.48889 18.1322C4.42659 18.4293 3.31614 18.5142 2.22101 18.382C4.13271 19.6114 6.3581 20.2641 8.63101 20.262C16.324 20.262 20.531 13.889 20.531 8.36199C20.531 8.18199 20.526 7.99999 20.518 7.82199C21.3369 7.23016 22.0436 6.49701 22.605 5.65699L22.604 5.65599Z" fill="#2A2A2A"/>
</g>
</svg>
